<?xml version="1.0" standalone="no"?>
<!DOCTYPE svg PUBLIC "-//W3C//DTD SVG 20010904//EN"
 "http://www.w3.org/TR/2001/REC-SVG-20010904/DTD/svg10.dtd">
<svg version="1.0" xmlns="http://www.w3.org/2000/svg"
 width="100.000000pt" height="100.000000pt" viewBox="0 0 100.000000 100.000000"
 preserveAspectRatio="xMidYMid meet">

<g transform="translate(0.000000,100.000000) scale(0.100000,-0.100000)"
fill="#000000" stroke="none">
<path d="M43 724 c-11 -29 5 -127 26 -155 14 -19 21 -43 21 -74 0 -30 6 -51
18 -63 10 -10 26 -38 35 -64 17 -45 51 -78 80 -78 23 0 9 116 -20 159 -26 38
-28 86 -4 86 8 0 18 -13 22 -29 5 -16 18 -39 31 -53 18 -20 22 -35 23 -88 0
-69 19 -107 68 -135 23 -13 30 -13 61 2 59 29 87 117 72 223 -14 89 -105 155
-217 155 -38 0 -101 41 -158 104 -28 29 -49 33 -58 10z"/>
<path d="M890 704 c-56 -57 -115 -94 -152 -94 -59 0 -132 -27 -165 -62 -40
-42 -53 -76 -53 -141 0 -103 36 -171 96 -183 63 -12 123 74 111 161 -5 36 -3
46 19 66 13 12 28 36 32 53 9 34 29 45 38 22 9 -23 -2 -58 -27 -90 -15 -19
-21 -42 -22 -86 -1 -33 2 -60 6 -60 30 0 67 34 83 77 10 26 26 55 36 65 12 12
18 33 18 60 0 24 11 63 26 93 19 39 24 65 22 101 -4 62 -22 67 -68 18z"/>
</g>
</svg>
